<svg version="1.1" xmlns="http://www.w3.org/2000/svg" xmlns:xlink="http://www.w3.org/1999/xlink" width="381.97189" height="150.6888" viewBox="0,0,381.97189,150.6888"><g transform="translate(-49.20715,-133.75142)"><g data-paper-data="{&quot;isPaintingLayer&quot;:true}" fill-rule="nonzero" stroke-linejoin="miter" stroke-miterlimit="10" stroke-dasharray="" stroke-dashoffset="0" style="mix-blend-mode: normal"><g><path d="M68.67335,252.8329l-6.60112,26.93258l-9.50562,-3.96067l8.44944,-50.16854l9.76966,-0.26404l4.22472,16.10674l4.75281,-15.05056l12.14607,-1.58427l9.50562,47.79213l-11.35393,7.92135l-7.6573,-26.66854l-6.33708,14.78652z" data-paper-data="{&quot;index&quot;:null}" fill="#ffffff" stroke="#ff0000" stroke-width="0" stroke-linecap="round"/><path d="M79.68187,226.90736c0,0 10.81619,-2.69887 11.61798,-1.84832c1.17213,1.24341 11.50432,48.07313 10.82584,48.84832c-1.84814,2.11159 -12.9382,6.60113 -12.9382,6.60113c0,0 -5.79438,-27.99705 -6.86517,-29.83708c-0.63571,-1.09239 -5.01705,21.30988 -7.12921,21.1236c-1.73814,-0.1533 -4.36018,-22.21755 -6.07304,-21.1236c-1.62423,1.03734 -5.33998,28.67431 -7.12922,29.30899c-1.88782,0.66964 -8.15295,-1.86664 -10.0337,-3.96068c-1.32869,-1.47936 7.69677,-45.78296 8.44943,-49.9045c0.35911,-1.96649 10.82585,-0.79214 10.82585,-0.79214" data-paper-data="{&quot;index&quot;:null}" fill="none" stroke="#000000" stroke-width="5.5" stroke-linecap="round"/><path d="M79.23513,225.53234c0,0 -3.40649,17.8876 -4.48876,17.16292c-0.89788,-0.60122 -3.43258,-18.2191 -3.43258,-18.2191" data-paper-data="{&quot;index&quot;:null}" fill="none" stroke="#000000" stroke-width="3.5" stroke-linecap="round"/><path d="M110.33614,224.55721c-0.00561,-0.74991 31.50851,-2.82086 33.80747,-0.74713c1.29346,1.16674 1.09848,10.75422 0.18678,11.76724c-1.21559,1.35068 -20.39514,-0.10967 -21.47988,0.93391c-0.88052,1.21357 -0.14052,6.03331 0.56034,9.1523c0.93433,0.93141 9.5834,-2.21541 11.95403,-0.56035c1.5618,1.09037 1.69782,8.56006 0.74713,10.83333c-0.53366,1.27606 -9.90635,-0.44194 -12.1408,1.49426c-0.93427,0.80955 -0.15649,6.54263 0.56035,7.65805c0.75375,1.17285 17.20967,-3.40138 21.10633,-0.74713c1.35129,0.92045 0.89527,15.52058 0.37356,16.25c-7.07946,1.46174 -34.67675,1.87491 -35.48851,0.74713c-2.16695,-3.01057 -0.17504,-55.21235 -0.18678,-56.78161z" fill="#ffffff" stroke="#000000" stroke-width="5.25" stroke-linecap="round"/><path d="M166.83112,280.98179c-1.60636,-4.64014 2.08181,-40.42084 0.68026,-43.08425c-1.11123,-2.11171 -12.29018,1.74614 -13.61846,-0.48317c-0.53558,-0.89889 -0.34213,-10.98016 0.26405,-11.35393c3.46182,-2.13457 34.24035,-3.17241 38.02247,-1.32023c1.54211,0.7552 0.48352,12.90082 -0.26404,13.99439c-1.06338,1.55555 -11.93809,-0.59244 -12.33878,0.37291c-1.87245,4.51115 0.6803,39.7958 -0.86347,41.08215c-1.96061,1.63368 -11.15289,2.89833 -11.88203,0.79213z" fill="#ffffff" stroke="#000000" stroke-width="5" stroke-linecap="butt"/><path d="M353.8981,280.98179c-1.60636,-4.64014 2.08181,-40.42084 0.68026,-43.08425c-1.11123,-2.11171 -12.29018,1.74614 -13.61846,-0.48317c-0.53558,-0.89889 -0.34213,-10.98016 0.26405,-11.35393c3.46182,-2.13457 34.24035,-3.17241 38.02247,-1.32023c1.54211,0.7552 0.48352,12.90082 -0.26404,13.99439c-1.06338,1.55555 -11.93809,-0.59244 -12.33878,0.37291c-1.87245,4.51115 0.6803,39.7958 -0.86347,41.08215c-1.96061,1.63368 -11.15289,2.89833 -11.88203,0.79213z" fill="#ffffff" stroke="#000000" stroke-width="5" stroke-linecap="butt"/><path d="M212.34479,222.12905h5.60345l-0.93391,16.06322l-5.79023,16.06322l11.58046,-0.74713l-5.60345,-13.26149v-18.67816l6.35057,1.30747l17.55747,53.04598l-4.48276,4.85632h-5.41667l-6.72414,-15.50287l-14.94253,0.18678l-8.96552,17.37069l-9.89943,-5.22989z" fill="#ffffff" stroke="#000000" stroke-width="0" stroke-linecap="round"/><path d="M399.41177,222.12905h5.60345l-0.93391,16.06322l-5.79023,16.06322l11.58046,-0.74713l-5.60345,-13.26149v-18.67816l6.35057,1.30747l17.55747,53.04598l-4.48276,4.85632h-5.41667l-6.72414,-15.50287l-14.94253,0.18678l-8.96552,17.37069l-9.89943,-5.22989z" fill="#ffffff" stroke="#000000" stroke-width="0" stroke-linecap="round"/><path d="M315.67813,222.12905h5.60345l-0.93391,16.06322l-5.79023,16.06322l11.58046,-0.74713l-5.60345,-13.26149v-18.67816l6.35057,1.30747l17.55747,53.04598l-4.48276,4.85632h-5.41667l-6.72414,-15.50287l-14.94253,0.18678l-8.96552,17.37069l-9.89943,-5.22989z" fill="#ffffff" stroke="#000000" stroke-width="0" stroke-linecap="round"/><path d="M212.15797,222.87619c1.21354,-2.43245 10.25275,-1.76214 11.58046,0.18678c2.12065,3.11286 4.73262,10.14564 6.88302,16.75868c3.20654,9.86098 10.48767,36.66086 10.48767,36.66086c0,0 -2.90587,3.93041 -4.41951,4.55871c-1.75137,0.72698 -5.47991,-0.44951 -5.47991,-0.44951c0,0 -4.44841,-13.49808 -7.28448,-15.68966c-0.46093,-0.35618 -13.12352,-0.55267 -14.38218,0.74713c-1.53456,1.58471 -4.40953,14.25015 -8.03161,16.43678c-2.15978,1.30384 -4.70645,-0.76728 -6.20162,-1.72645c-1.76095,-1.12967 -4.43723,-2.16069 -3.6978,-4.62413c6.43365,-21.43381 19.33244,-50.42675 20.54598,-52.8592z" fill="none" stroke="#000000" stroke-width="5.5" stroke-linecap="round"/><path d="M399.22495,222.87619c1.21354,-2.43245 10.25275,-1.76214 11.58046,0.18678c2.12065,3.11286 4.73262,10.14564 6.88302,16.75868c3.20654,9.86098 10.48767,36.66086 10.48767,36.66086c0,0 -2.90587,3.93041 -4.41951,4.55871c-1.75137,0.72698 -5.47991,-0.44951 -5.47991,-0.44951c0,0 -4.44841,-13.49808 -7.28448,-15.68966c-0.46093,-0.35618 -13.12352,-0.55267 -14.38218,0.74713c-1.53456,1.58471 -4.40953,14.25015 -8.03161,16.43678c-2.15978,1.30384 -4.70645,-0.76728 -6.20162,-1.72645c-1.76095,-1.12967 -4.43723,-2.16069 -3.6978,-4.62413c6.43365,-21.43381 19.33244,-50.42675 20.54598,-52.8592z" fill="none" stroke="#000000" stroke-width="5.5" stroke-linecap="round"/><path d="M315.49131,222.87619c1.21354,-2.43245 10.25275,-1.76214 11.58046,0.18678c2.12065,3.11286 4.73262,10.14564 6.88302,16.75868c3.20654,9.86098 10.48767,36.66086 10.48767,36.66086c0,0 -2.90587,3.93041 -4.41951,4.55871c-1.75137,0.72698 -5.47991,-0.44951 -5.47991,-0.44951c0,0 -4.44841,-13.49808 -7.28448,-15.68966c-0.46093,-0.35618 -13.12352,-0.55267 -14.38218,0.74713c-1.53456,1.58471 -4.40953,14.25015 -8.03161,16.43678c-2.15978,1.30384 -4.70645,-0.76728 -6.20162,-1.72645c-1.76095,-1.12967 -4.43723,-2.16069 -3.6978,-4.62413c6.43365,-21.43381 19.33244,-50.42675 20.54598,-52.8592z" fill="none" stroke="#000000" stroke-width="5.5" stroke-linecap="round"/><path d="M217.01431,240.24687l5.60345,13.63506l-11.39368,0.37356z" fill="none" stroke="#000000" stroke-width="4" stroke-linecap="round"/><path d="M404.08129,240.24687l5.60345,13.63506l-11.39368,0.37356z" fill="none" stroke="#000000" stroke-width="4" stroke-linecap="round"/><path d="M320.34764,240.24687l5.60345,13.63506l-11.39368,0.37356z" fill="none" stroke="#000000" stroke-width="4" stroke-linecap="round"/><path d="M266.51142,222.31584l21.2931,6.35057l5.79023,28.95115l-15.31609,21.2931l-28.3908,1.30747l-2.61494,-12.32759l10.27299,-1.68103l-2.0546,-30.81897l11.76724,0.37356l2.24138,27.4569l9.33908,-3.54885l2.98851,-13.82184l-11.39368,-8.03161l-24.84195,-1.86782l0.74713,-11.02011z" fill="#ffffff" stroke="#000000" stroke-width="0" stroke-linecap="round"/><path d="M245.96546,236.698c0,0 0.37356,-3.72032 0.37356,-5.60345c0,-1.91426 -0.37356,-5.79023 -0.37356,-5.79023c0,0 46.92424,-17.81358 47.25574,23.72126c0.33333,41.76264 -43.52011,31.19252 -43.52011,31.19252c0,0 -2.20331,-10.48292 -2.0546,-12.32759c0.04355,-0.54019 10.12159,-0.61877 10.08621,-1.68103c-0.38845,-11.66145 -0.61964,-27.8569 -2.42816,-29.69827c-0.51504,-0.52439 -9.33908,0.18678 -9.33908,0.18678z" fill="none" stroke="#000000" stroke-width="5.5" stroke-linecap="round"/><path d="M281.64074,249.39916c1.54469,13.00698 -12.15616,13.85585 -12.32759,13.44828c-0.55769,-1.32591 -2.61994,-17.47891 -1.49425,-25.02874c0.1149,-0.77059 12.55577,0.9196 13.82184,11.58046z" fill="none" stroke="#000000" stroke-width="4.5" stroke-linecap="round"/></g><g stroke="#000000"><path d="M102.81732,152.33074c-0.00561,-0.74991 31.50851,-2.82086 33.80747,-0.74713c1.29346,1.16674 1.09848,10.75422 0.18678,11.76724c-1.21559,1.35068 -20.39514,-0.10967 -21.47988,0.93391c-0.88052,1.21357 -0.14052,6.03331 0.56034,9.1523c0.93433,0.93141 9.5834,-2.21541 11.95403,-0.56035c1.5618,1.09037 1.69782,8.56006 0.74713,10.83333c-0.53366,1.27606 -9.90635,-0.44194 -12.1408,1.49426c-0.93427,0.80955 -0.15649,6.54263 0.56035,7.65805c0.75375,1.17285 17.20967,-3.40138 21.10633,-0.74713c1.35129,0.92045 0.89527,15.52058 0.37356,16.25c-7.07946,1.46174 -34.67675,1.87491 -35.48851,0.74713c-2.16695,-3.01057 -0.17504,-55.21235 -0.18678,-56.78161z" fill="#ffffff" stroke-width="5.25" stroke-linecap="round"/><g stroke-linecap="round"><path d="M166.82593,150.08937l21.2931,6.35057l5.79023,28.95115l-15.31609,21.2931l-28.3908,1.30747l-2.61494,-12.32759l10.27299,-1.68103l-2.0546,-30.81897l11.76724,0.37356l2.24138,27.4569l9.33908,-3.54885l2.98851,-13.82184l-11.39368,-8.03161l-24.84195,-1.86782l0.74713,-11.02011z" fill="#ffffff" stroke-width="0"/><path d="M146.27997,164.47154c0,0 0.37356,-3.72032 0.37356,-5.60345c0,-1.91426 -0.37356,-5.79023 -0.37356,-5.79023c0,0 46.92424,-17.81358 47.25574,23.72126c0.33333,41.76264 -43.52011,31.19252 -43.52011,31.19252c0,0 -2.20331,-10.48292 -2.0546,-12.32759c0.04355,-0.54019 10.12159,-0.61877 10.08621,-1.68103c-0.38845,-11.66145 -0.61964,-27.8569 -2.42816,-29.69827c-0.51504,-0.52439 -9.33908,0.18678 -9.33908,0.18678z" fill="none" stroke-width="5.5"/><path d="M181.95525,177.17269c1.54469,13.00698 -12.15616,13.85585 -12.32759,13.44828c-0.55769,-1.32591 -2.61994,-17.47891 -1.49425,-25.02874c0.1149,-0.77059 12.55577,0.9196 13.82184,11.58046z" fill="none" stroke-width="4.5"/></g><path d="M199.85181,153.07784c2.93624,-1.36352 32.79745,-2.81742 35.30172,-0.93391c1.43705,0.99177 1.06252,10.01602 -0.18678,11.76724c-1.6809,2.62486 -10.98856,1.35772 -12.1408,3.17529c-1.49322,2.35543 -1.76172,25.18866 0,26.70977c1.63033,1.40767 8.24416,-0.498 8.96551,0.18678c1.67053,1.58582 2.8573,10.31962 1.49426,12.88793c-1.22461,2.30747 -31.91032,4.35176 -32.87357,2.80173c-1.37958,-2.21997 -2.73228,-11.09698 -1.49425,-13.26149c1.26551,-2.21255 11.79532,0.04603 12.1408,-1.30747c0.99463,-3.89668 1.4033,-27.12852 0,-29.13793c-0.60474,-0.86594 -10.94881,1.07837 -11.2069,0.56035c-0.90938,-1.82525 -1.67866,-12.66874 0,-13.44827z" fill="#ffffff" stroke-width="5.5" stroke-linecap="round"/><path d="M255.8123,208.75532c-1.60636,-4.64014 2.08181,-40.42084 0.68026,-43.08425c-1.11123,-2.11171 -12.29018,1.74614 -13.61846,-0.48317c-0.53558,-0.89889 -0.34213,-10.98016 0.26405,-11.35393c3.46182,-2.13457 34.24035,-3.17241 38.02247,-1.32023c1.54211,0.7552 0.48352,12.90082 -0.26404,13.99439c-1.06338,1.55555 -11.93809,-0.59244 -12.33878,0.37291c-1.87245,4.51115 0.6803,39.7958 -0.86347,41.08215c-1.96061,1.63368 -11.15289,2.89833 -11.88203,0.79213z" fill="#ffffff" stroke-width="5" stroke-linecap="butt"/><path d="M290.66622,160.96319l10.82584,-12.14607l18.74719,0.79213l11.35393,24.55618l-5.80899,28.25281l-18.2191,9.24157l-1.32022,-13.20225l6.60112,-4.22472l6.86517,-16.37079l-10.82584,-15.05056l-10.82584,20.06742l10.03371,12.14607l-0.26404,16.63483l-17.16292,-9.50562l-3.43258,-35.91011z" fill="#ffffff" stroke-width="0" stroke-linecap="round"/><path d="M286.9696,182.35083c-0.4329,-36.66316 24.02809,-34.32585 24.02809,-34.32585c0,0 20.77031,-1.16965 20.06742,32.47753c-0.632,30.25359 -21.65169,31.42135 -21.65169,31.42135c0,0 -22.05763,3.134 -22.44382,-29.57304z" fill="none" stroke-width="5.5" stroke-linecap="round"/><path d="M319.38589,181.42779c-0.8754,8.04734 -5.93166,14.09762 -11.29347,13.51369c-5.36181,-0.58393 -8.99877,-7.58096 -8.12337,-15.6283c0.8754,-8.04734 6.18622,-15.58699 10.50134,-15.362c3.52325,0.1837 9.79091,9.42928 8.91551,17.47661z" fill="none" stroke-width="5.5" stroke-linecap="butt"/><path d="M368.20044,151.98567l6.60112,18.74719l-11.08989,10.82584l14.25843,17.42697l-8.18539,9.76966l-11.08989,-12.14607l-8.44944,-5.80899l-1.58427,-17.42697l10.03371,-2.11236v-5.54494l-9.76966,-2.64045l2.90449,45.94382l-12.9382,1.84831l-0.79213,-59.14607z" fill="#ffffff" stroke-width="0" stroke-linecap="round"/><path d="M339.15549,151.98566c0.56677,-0.92907 19.17302,-3.52093 26.66854,-0.52809c1.10145,0.43979 8.31801,2.76068 8.44944,15.31461c0.13143,12.55393 -11.5794,12.59266 -10.82584,14.52247c0.75355,1.92981 14.4735,17.1684 14.52247,17.42696c0.5623,2.96851 -5.4466,10.37144 -7.39326,10.29776c-3.80544,-0.14403 -18.66054,-22.08327 -19.53932,-20.59551c-0.93578,1.58428 1.57516,19.25793 0.52809,20.59551c-1.28656,1.64351 -10.72858,3.03756 -12.41011,0.79213c-1.25802,-1.6799 -0.56678,-56.89678 0,-57.82585z" fill="none" stroke-width="5.5" stroke-linecap="round"/><path d="M349.45324,163.60364c4.75971,0.64775 10.22597,-0.39824 10.5618,4.48876c0.26405,3.84235 -6.43219,6.13528 -10.29775,5.01685c-0.80751,-0.23364 -1.63494,-9.69219 -0.26404,-9.50562z" fill="none" stroke-width="4.5" stroke-linecap="round"/></g></g></g></svg>
