<svg version="1.1" xmlns="http://www.w3.org/2000/svg" xmlns:xlink="http://www.w3.org/1999/xlink" width="489.58473" height="81.00349" viewBox="0,0,489.58473,81.00349"><g transform="translate(21.12361,-133.27702)"><g data-paper-data="{&quot;isPaintingLayer&quot;:true}" fill-rule="nonzero" stroke="#000000" stroke-linejoin="miter" stroke-miterlimit="10" stroke-dasharray="" stroke-dashoffset="0" style="mix-blend-mode: normal"><path d="M-18.49861,151.85633c-0.00561,-0.74991 31.50851,-2.82086 33.80747,-0.74713c1.29346,1.16674 1.09848,10.75422 0.18678,11.76724c-1.21559,1.35068 -20.39514,-0.10967 -21.47988,0.93391c-0.88052,1.21357 -0.14052,6.03331 0.56034,9.1523c0.93433,0.93141 9.5834,-2.21541 11.95403,-0.56035c1.5618,1.09037 1.69782,8.56006 0.74713,10.83333c-0.53366,1.27606 -9.90635,-0.44194 -12.1408,1.49426c-0.93427,0.80955 -0.15649,6.54263 0.56035,7.65805c0.75375,1.17285 17.20967,-3.40138 21.10633,-0.74713c1.35129,0.92045 0.89527,15.52058 0.37356,16.25c-7.07946,1.46174 -34.67675,1.87491 -35.48851,0.74713c-2.16695,-3.01057 -0.17504,-55.21235 -0.18678,-56.78161z" fill="#ffffff" stroke-width="5.25" stroke-linecap="round"/><g stroke-linecap="round"><path d="M45.51,149.61496l21.2931,6.35057l5.79023,28.95115l-15.31609,21.2931l-28.3908,1.30747l-2.61494,-12.32759l10.27299,-1.68103l-2.0546,-30.81897l11.76724,0.37356l2.24138,27.4569l9.33908,-3.54885l2.98851,-13.82184l-11.39368,-8.03161l-24.84195,-1.86782l0.74713,-11.02011z" fill="#ffffff" stroke-width="0"/><path d="M24.96404,163.99713c0,0 0.37356,-3.72032 0.37356,-5.60345c0,-1.91426 -0.37356,-5.79023 -0.37356,-5.79023c0,0 46.92424,-17.81358 47.25574,23.72126c0.33333,41.76264 -43.52011,31.19252 -43.52011,31.19252c0,0 -2.20331,-10.48292 -2.0546,-12.32759c0.04355,-0.54019 10.12159,-0.61877 10.08621,-1.68103c-0.38845,-11.66145 -0.61964,-27.8569 -2.42816,-29.69827c-0.51504,-0.52439 -9.33908,0.18678 -9.33908,0.18678z" fill="none" stroke-width="5.5"/><path d="M60.63932,176.69828c1.54469,13.00698 -12.15616,13.85585 -12.32759,13.44828c-0.55769,-1.32591 -2.61994,-17.47891 -1.49425,-25.02874c0.1149,-0.77059 12.55577,0.9196 13.82184,11.58046z" fill="none" stroke-width="4.5"/></g><path d="M78.53588,152.60342c2.93624,-1.36352 32.79745,-2.81742 35.30172,-0.93391c1.43705,0.99177 1.06252,10.01602 -0.18678,11.76724c-1.6809,2.62486 -10.98856,1.35772 -12.1408,3.17529c-1.49322,2.35543 -1.76172,25.18866 0,26.70977c1.63033,1.40767 8.24416,-0.498 8.96551,0.18678c1.67053,1.58582 2.8573,10.31962 1.49426,12.88793c-1.22461,2.30747 -31.91032,4.35176 -32.87357,2.80173c-1.37958,-2.21997 -2.73228,-11.09698 -1.49425,-13.26149c1.26551,-2.21255 11.79532,0.04603 12.1408,-1.30747c0.99463,-3.89668 1.4033,-27.12852 0,-29.13793c-0.60474,-0.86594 -10.94881,1.07837 -11.2069,0.56035c-0.90938,-1.82525 -1.67866,-12.66874 0,-13.44827z" fill="#ffffff" stroke-width="5.5" stroke-linecap="round"/><path d="M134.49637,208.28091c-1.60636,-4.64014 2.08181,-40.42084 0.68026,-43.08425c-1.11123,-2.11171 -12.29018,1.74614 -13.61846,-0.48317c-0.53558,-0.89889 -0.34213,-10.98016 0.26405,-11.35393c3.46182,-2.13457 34.24035,-3.17241 38.02247,-1.32023c1.54211,0.7552 0.48352,12.90082 -0.26404,13.99439c-1.06338,1.55555 -11.93809,-0.59244 -12.33878,0.37291c-1.87245,4.51115 0.6803,39.7958 -0.86347,41.08215c-1.96061,1.63368 -11.15289,2.89833 -11.88203,0.79213z" fill="#ffffff" stroke-width="5" stroke-linecap="butt"/><path d="M169.35029,160.48878l10.82584,-12.14607l18.74719,0.79213l11.35393,24.55618l-5.80899,28.25281l-18.2191,9.24157l-1.32022,-13.20225l6.60112,-4.22472l6.86517,-16.37079l-10.82584,-15.05056l-10.82584,20.06742l10.03371,12.14607l-0.26404,16.63483l-17.16292,-9.50562l-3.43258,-35.91011z" fill="#ffffff" stroke-width="0" stroke-linecap="round"/><path d="M165.65367,181.87642c-0.4329,-36.66316 24.02809,-34.32585 24.02809,-34.32585c0,0 20.77031,-1.16965 20.06742,32.47753c-0.632,30.25359 -21.65169,31.42135 -21.65169,31.42135c0,0 -22.05763,3.134 -22.44382,-29.57304z" fill="none" stroke-width="5.5" stroke-linecap="round"/><path d="M198.06996,180.95338c-0.8754,8.04734 -5.93166,14.09762 -11.29347,13.51369c-5.36181,-0.58393 -8.99877,-7.58096 -8.12337,-15.6283c0.8754,-8.04734 6.18622,-15.58699 10.50134,-15.362c3.52325,0.1837 9.79091,9.42928 8.91551,17.47661z" fill="none" stroke-width="5.5" stroke-linecap="butt"/><path d="M246.88451,151.51126l6.60112,18.74719l-11.08989,10.82584l14.25843,17.42697l-8.18539,9.76966l-11.08989,-12.14607l-8.44944,-5.80899l-1.58427,-17.42697l10.03371,-2.11236v-5.54494l-9.76966,-2.64045l2.90449,45.94382l-12.9382,1.84831l-0.79213,-59.14607z" fill="#ffffff" stroke-width="0" stroke-linecap="round"/><path d="M217.83956,151.51125c0.56677,-0.92907 19.17302,-3.52093 26.66854,-0.52809c1.10145,0.43979 8.31801,2.76068 8.44944,15.31461c0.13143,12.55393 -11.5794,12.59266 -10.82584,14.52247c0.75355,1.92981 14.4735,17.1684 14.52247,17.42696c0.5623,2.96851 -5.4466,10.37144 -7.39326,10.29776c-3.80544,-0.14403 -18.66054,-22.08327 -19.53932,-20.59551c-0.93578,1.58428 1.57516,19.25793 0.52809,20.59551c-1.28656,1.64351 -10.72858,3.03756 -12.41011,0.79213c-1.25802,-1.6799 -0.56678,-56.89678 0,-57.82585z" fill="none" stroke-width="5.5" stroke-linecap="round"/><path d="M228.13731,163.12923c4.75971,0.64775 10.22597,-0.39824 10.5618,4.48876c0.26405,3.84235 -6.43219,6.13528 -10.29775,5.01685c-0.80751,-0.23364 -1.63494,-9.69219 -0.26404,-9.50562z" fill="none" stroke-width="4.5" stroke-linecap="round"/><g fill="#ffffff" stroke-linecap="round"><path d="M292.64904,150.98315c2.05231,1.31004 5.48463,24.63318 6.86517,26.66854c0.54079,0.79729 6.54686,-17.83027 8.71348,-17.42697c1.84304,0.34308 6.24837,16.39325 7.6573,16.63483c1.98857,0.34097 5.68241,-18.18157 8.44944,-22.97191c1.1707,-2.02674 8.86193,5.75745 8.97753,7.6573c0.29285,4.81312 -7.90605,31.54598 -13.46629,44.6236c-0.93327,2.19503 -11.67434,-18.64209 -12.9382,-18.2191c-1.56605,0.52413 -12.05095,20.10073 -12.67416,19.01124c-4.50846,-7.88171 -13.72129,-45.67468 -12.41011,-48.32022c1.39396,-2.81256 9.18116,-8.70714 10.82584,-7.6573z" stroke-width="5"/><path d="M342.15604,151.85632c-0.00561,-0.74991 31.50851,-2.82086 33.80747,-0.74713c1.29346,1.16674 1.09848,10.75422 0.18678,11.76724c-1.21559,1.35068 -20.39514,-0.10967 -21.47988,0.93391c-0.88052,1.21357 -0.14052,6.03331 0.56034,9.1523c0.93433,0.93141 9.5834,-2.21541 11.95403,-0.56035c1.5618,1.09037 1.69782,8.56006 0.74713,10.83333c-0.53366,1.27606 -9.90635,-0.44194 -12.1408,1.49426c-0.93427,0.80955 -0.15649,6.54263 0.56035,7.65805c0.75375,1.17285 17.20967,-3.40138 21.10633,-0.74713c1.35129,0.92045 0.89527,15.52058 0.37356,16.25c-7.07946,1.46174 -34.67675,1.87491 -35.48851,0.74713c-2.16695,-3.01057 -0.17504,-55.21235 -0.18678,-56.78161z" stroke-width="5.25"/><path d="M386.0024,151.85632c-0.00561,-0.74991 31.50851,-2.82086 33.80747,-0.74713c1.29346,1.16674 1.09848,10.75422 0.18678,11.76724c-1.21559,1.35068 -20.39514,-0.10967 -21.47988,0.93391c-0.88052,1.21357 -0.14052,6.03331 0.56034,9.1523c0.93433,0.93141 9.5834,-2.21541 11.95403,-0.56035c1.5618,1.09037 1.69782,8.56006 0.74713,10.83333c-0.53366,1.27606 -9.90635,-0.44194 -12.1408,1.49426c-0.93427,0.80955 -0.15649,6.54263 0.56035,7.65805c0.75375,1.17285 17.20967,-3.40138 21.10633,-0.74713c1.35129,0.92045 0.89527,15.52058 0.37356,16.25c-7.07946,1.46174 -34.67675,1.87491 -35.48851,0.74713c-2.16695,-3.01057 -0.17504,-55.21235 -0.18678,-56.78161z" stroke-width="5.25"/><path d="M440.86508,148.86782c1.541,1.0356 0.85577,19.66692 2.42817,20.17241c1.86265,0.5988 8.25414,-15.6096 12.1408,-19.05172c1.11022,-0.98323 7.90531,3.02489 10.27299,8.03161c-0.02218,3.36158 -14.15222,17.75738 -15.3161,20.17241c0.08087,2.60292 14.99434,18.54739 14.94253,21.85344c-0.02573,1.64213 -6.2165,10.17844 -7.65804,10.08621c-3.06093,-0.19584 -14.19037,-19.92568 -15.12931,-20.73275c-1.69561,-1.45745 -0.56035,20.73276 -0.56035,20.73276c0,0 -4.49253,0.87054 -6.53015,0.83919c-2.00891,-0.0309 -5.61066,-1.02597 -5.61066,-1.02597c0,0 -2.00921,-55.54986 0,-59.9569c0.29966,-0.65729 9.64595,-2.04417 11.02012,-1.12069z" stroke-width="5.5"/></g></g></g></svg>
